<?xml version="1.0" encoding="UTF-8"?>
<svg id="Layer_1" data-name="Layer 1" xmlns="http://www.w3.org/2000/svg" viewBox="0 0 600 400">
  <defs>
    <style>
      .cls-1 {
        fill: #f4f091;
      }
    </style>
  </defs>
  <g>
    <path class="cls-1" d="M38.18,335.33h-7.77v-52.39h12.49l10.21,25.58c1.48,3.84,4.37,11.52,6.38,17.81,2.18-6.2,4.98-13.7,6.63-18.07l10.22-25.32h11.61v52.39h-8.03v-25.93c0-5.94.26-13.79.35-19.73h-.09c-2.18,6.64-5.24,15.36-8.12,22.79l-9.43,22.87h-7.33l-9.17-23.23c-3.06-7.86-5.76-15.89-7.95-22.44h-.09c.09,6.02.09,13.62.09,19.73v25.93Z"/>
    <path class="cls-1" d="M91.17,349.48l1.13-7.25c1.84.35,3.41.61,5.15.61,4.8,0,7.51-1.05,10.56-8.12l-17.29-40.16h8.29l5.76,14.58c1.92,5.06,4.89,12.31,7.16,18.42h.18c2.27-6.29,4.98-13.27,6.72-18.34l5.24-14.67h8.12l-17.2,41.3c-4.19,9.95-9.17,14.15-17.73,14.15-2.62,0-4.37-.26-6.11-.52Z"/>
    <path class="cls-1" d="M145.48,309.05c0-15.8,10.39-27.15,26.19-27.15,13.8,0,22.88,8.82,24.8,21.83l-7.77,1.4c-1.57-9.61-7.34-15.89-17.2-15.89-11.52,0-17.99,8.64-17.99,19.82s6.37,20.08,18.07,20.08c9.95,0,15.63-6.55,17.2-16.5l7.68,1.31c-1.74,13.1-11.09,22.44-24.88,22.44-15.98,0-26.11-11.52-26.11-27.33Z"/>
    <path class="cls-1" d="M227.19,324.94h-.09c-1.83,7.51-7.34,11.26-14.41,11.26-7.94,0-13.09-3.84-13.09-11.53,0-7.16,4.54-12.48,14.4-12.48h13.18v-2.18c0-6.37-2.44-9.86-8.91-9.86-5.85,0-9.08,2.71-10.21,9.43l-7.25-1.04c1.4-9.52,6.98-14.85,17.72-14.85,11.35,0,16.24,5.76,16.24,16.24v25.41h-7.6v-10.39ZM227.19,320.14v-1.92h-12.13c-5.15,0-7.95,1.92-7.95,5.5,0,3.14,2.01,6.11,7.95,6.11,7.51,0,12.13-4.11,12.13-9.69Z"/>
    <path class="cls-1" d="M249.19,335.33h-7.6v-40.77h7.6v11h.09c1.75-8.29,7.07-12.05,14.23-12.05,10.56,0,14.23,6.98,14.23,15.72v26.11h-7.59v-24.18c0-5.59-2.36-10.74-9.78-10.74-6.98,0-11.18,3.93-11.18,10.74v24.18Z"/>
    <path class="cls-1" d="M314.32,323.37h-.26c-1.74,8.12-6.55,13.01-15.1,13.01-11.09,0-16.85-8.21-16.85-21.3s6.2-21.65,16.76-21.57c8.91-.09,13.62,4.98,15.28,13.18h.17v-24.88h7.59v53.52h-7.59v-11.96ZM314.32,315.34v-.61c0-8.73-4.89-14.41-12.57-14.41s-12.05,5.41-12.05,14.76,3.84,14.32,12.05,14.32c7.68,0,12.57-4.98,12.57-14.06Z"/>
    <path class="cls-1" d="M329.33,288.27v-6.46h8.64v6.46h-8.64ZM329.86,335.33v-40.77h7.51v40.77h-7.51Z"/>
    <path class="cls-1" d="M375.26,323.37h-.26c-1.75,8.12-6.55,13.01-15.1,13.01-11.09,0-16.85-8.21-16.85-21.3s6.2-21.65,16.76-21.57c8.91-.09,13.62,4.98,15.28,13.18h.17v-24.88h7.59v53.52h-7.59v-11.96ZM375.26,315.34v-.61c0-8.73-4.89-14.41-12.58-14.41s-12.05,5.41-12.05,14.76,3.84,14.32,12.05,14.32c7.68,0,12.58-4.98,12.58-14.06Z"/>
    <path class="cls-1" d="M416.11,324.94h-.09c-1.83,7.51-7.33,11.26-14.4,11.26-7.95,0-13.1-3.84-13.1-11.53,0-7.16,4.54-12.48,14.41-12.48h13.18v-2.18c0-6.37-2.44-9.86-8.91-9.86-5.85,0-9.08,2.71-10.22,9.43l-7.25-1.04c1.4-9.52,6.98-14.85,17.73-14.85,11.35,0,16.24,5.76,16.24,16.24v25.41h-7.59v-10.39ZM416.11,320.14v-1.92h-12.14c-5.15,0-7.94,1.92-7.94,5.5,0,3.14,2.01,6.11,7.94,6.11,7.51,0,12.14-4.11,12.14-9.69Z"/>
    <path class="cls-1" d="M433.05,301.11h-6.02v-6.55h6.02v-11.26h7.59v11.26h13.01v6.55h-13.01v21.04c0,4.54,1.75,6.9,6.29,6.9,2.18,0,4.01-.44,6.2-1.05l.96,6.99c-2.79.87-4.98,1.4-8.73,1.4-8.55,0-12.31-5.59-12.31-13.18v-22.09Z"/>
    <path class="cls-1" d="M455.48,315.25c0-13.62,8.29-21.74,20.69-21.74s18.69,7.77,18.69,18.95c0,1.31,0,2.97-.18,4.89h-31.61c.79,7.95,5.41,12.31,13.18,12.31,7.34,0,10.22-3.75,11.61-8.55l6.72,2.01c-2.1,8.03-7.95,13.18-18.34,13.18-12.57,0-20.78-7.68-20.78-21.04ZM463.25,311.41h24.45c-.52-7.25-4.28-11.35-11.79-11.35-6.98,0-11.61,3.75-12.66,11.35Z"/>
    <path class="cls-1" d="M545.06,320.66h-23.31l-5.76,14.67h-8.38l21.48-52.39h8.91l21.48,52.39h-8.64l-5.77-14.67ZM524.28,314.03h18.25l-2.36-5.94c-2.1-5.59-4.54-11.96-6.46-17.29h-.52c-1.92,5.41-4.28,11.7-6.55,17.29l-2.36,5.94Z"/>
    <path class="cls-1" d="M561.56,335.33v-52.39h8.03v52.39h-8.03Z"/>
  </g>
  <g>
    <polygon class="cls-1" points="338.42 50 338.42 166.3 262.61 241.08 146.31 241.08 338.42 50"/>
    <polygon class="cls-1" points="453.69 50 453.69 241.08 338.42 241.08 338.42 166.3 453.69 50"/>
  </g>
</svg>