<?xml version="1.0" encoding="UTF-8"?>
<svg id="Layer_1" data-name="Layer 1" xmlns="http://www.w3.org/2000/svg" viewBox="0 0 600 150">
  <defs>
    <style>
      .cls-1 {
        fill: #221f20;
      }
    </style>
  </defs>
  <g>
    <path class="cls-1" d="M154.2,93.99h-5.79v-39.02h9.3l7.61,19.06c1.11,2.86,3.25,8.58,4.75,13.26,1.62-4.62,3.71-10.21,4.94-13.46l7.61-18.86h8.65v39.02h-5.98v-19.31c0-4.42.2-10.27.26-14.69h-.06c-1.63,4.94-3.9,11.44-6.05,16.97l-7.02,17.04h-5.46l-6.83-17.3c-2.28-5.85-4.29-11.83-5.92-16.71h-.06c.06,4.49.06,10.14.06,14.69v19.31Z"/>
    <path class="cls-1" d="M193.67,104.52l.84-5.4c1.37.26,2.54.46,3.84.46,3.58,0,5.59-.78,7.87-6.05l-12.87-29.91h6.18l4.29,10.86c1.43,3.77,3.64,9.17,5.33,13.72h.13c1.69-4.68,3.71-9.88,5.01-13.66l3.9-10.92h6.05l-12.81,30.76c-3.12,7.41-6.83,10.54-13.2,10.54-1.95,0-3.25-.2-4.55-.39Z"/>
    <path class="cls-1" d="M234.12,74.41c0-11.77,7.74-20.22,19.51-20.22,10.28,0,17.04,6.57,18.47,16.26l-5.79,1.04c-1.17-7.15-5.46-11.83-12.81-11.83-8.58,0-13.4,6.44-13.4,14.76s4.75,14.96,13.46,14.96c7.41,0,11.64-4.88,12.81-12.29l5.72.97c-1.3,9.76-8.26,16.71-18.53,16.71-11.9,0-19.44-8.58-19.44-20.35Z"/>
    <path class="cls-1" d="M294.98,86.25h-.06c-1.37,5.59-5.46,8.39-10.73,8.39-5.92,0-9.75-2.86-9.75-8.59,0-5.33,3.38-9.3,10.73-9.3h9.82v-1.63c0-4.75-1.82-7.35-6.63-7.35-4.36,0-6.76,2.02-7.61,7.02l-5.4-.78c1.04-7.09,5.2-11.06,13.2-11.06,8.45,0,12.1,4.29,12.1,12.1v18.92h-5.66v-7.74ZM294.98,82.67v-1.43h-9.04c-3.84,0-5.92,1.43-5.92,4.1,0,2.34,1.5,4.55,5.92,4.55,5.59,0,9.04-3.06,9.04-7.22Z"/>
    <path class="cls-1" d="M311.37,93.99h-5.66v-30.37h5.66v8.19h.06c1.3-6.18,5.27-8.97,10.6-8.97,7.87,0,10.6,5.2,10.6,11.71v19.44h-5.66v-18.01c0-4.16-1.76-8-7.28-8-5.2,0-8.32,2.93-8.32,8v18.01Z"/>
    <path class="cls-1" d="M359.87,85.08h-.2c-1.3,6.05-4.88,9.69-11.25,9.69-8.26,0-12.55-6.11-12.55-15.87s4.62-16.13,12.49-16.06c6.63-.06,10.14,3.71,11.38,9.82h.13v-18.53h5.66v39.86h-5.66v-8.91ZM359.87,79.1v-.46c0-6.5-3.64-10.73-9.36-10.73s-8.97,4.03-8.97,10.99,2.86,10.67,8.97,10.67c5.72,0,9.36-3.71,9.36-10.47Z"/>
    <path class="cls-1" d="M371.05,58.93v-4.81h6.44v4.81h-6.44ZM371.45,93.99v-30.37h5.59v30.37h-5.59Z"/>
    <path class="cls-1" d="M405.26,85.08h-.2c-1.3,6.05-4.88,9.69-11.25,9.69-8.26,0-12.55-6.11-12.55-15.87s4.62-16.13,12.49-16.06c6.63-.06,10.15,3.71,11.38,9.82h.13v-18.53h5.66v39.86h-5.66v-8.91ZM405.26,79.1v-.46c0-6.5-3.64-10.73-9.37-10.73s-8.97,4.03-8.97,10.99,2.86,10.67,8.97,10.67c5.72,0,9.37-3.71,9.37-10.47Z"/>
    <path class="cls-1" d="M435.69,86.25h-.07c-1.37,5.59-5.46,8.39-10.73,8.39-5.92,0-9.76-2.86-9.76-8.59,0-5.33,3.38-9.3,10.73-9.3h9.82v-1.63c0-4.75-1.82-7.35-6.63-7.35-4.36,0-6.76,2.02-7.61,7.02l-5.4-.78c1.04-7.09,5.2-11.06,13.2-11.06,8.45,0,12.09,4.29,12.09,12.1v18.92h-5.66v-7.74ZM435.69,82.67v-1.43h-9.04c-3.84,0-5.92,1.43-5.92,4.1,0,2.34,1.49,4.55,5.92,4.55,5.59,0,9.04-3.06,9.04-7.22Z"/>
    <path class="cls-1" d="M448.3,68.49h-4.49v-4.88h4.49v-8.39h5.66v8.39h9.69v4.88h-9.69v15.67c0,3.38,1.3,5.14,4.68,5.14,1.62,0,2.99-.33,4.62-.78l.71,5.2c-2.08.65-3.71,1.04-6.5,1.04-6.37,0-9.17-4.16-9.17-9.82v-16.45Z"/>
    <path class="cls-1" d="M465.01,79.03c0-10.14,6.18-16.19,15.41-16.19s13.92,5.79,13.92,14.11c0,.97,0,2.21-.13,3.64h-23.54c.58,5.92,4.03,9.17,9.82,9.17,5.46,0,7.61-2.79,8.65-6.37l5.01,1.49c-1.56,5.98-5.92,9.82-13.66,9.82-9.36,0-15.48-5.72-15.48-15.67ZM470.8,76.17h18.21c-.39-5.4-3.19-8.46-8.78-8.46-5.2,0-8.65,2.8-9.43,8.46Z"/>
    <path class="cls-1" d="M531.73,83.06h-17.36l-4.29,10.92h-6.24l16-39.02h6.63l16,39.02h-6.44l-4.29-10.92ZM516.25,78.12h13.59l-1.76-4.42c-1.56-4.16-3.38-8.91-4.81-12.88h-.39c-1.43,4.03-3.19,8.72-4.88,12.88l-1.75,4.42Z"/>
    <path class="cls-1" d="M544.02,93.99v-39.02h5.98v39.02h-5.98Z"/>
  </g>
  <g>
    <polygon class="cls-1" points="99.16 45.09 99.16 74.85 79.76 93.99 50 93.99 99.16 45.09"/>
    <polygon class="cls-1" points="128.66 45.09 128.66 93.99 99.16 93.99 99.16 74.85 128.66 45.09"/>
  </g>
</svg>